<?xml version="1.0" encoding="UTF-8" standalone="no"?>
<svg
   viewBox="0 0 199.039 199.039"
   version="1.1"
   width="199.039"
   height="199.039"
   xmlns="http://www.w3.org/2000/svg"
   xmlns:svg="http://www.w3.org/2000/svg">
  <defs
     id="defs1">
    <style
       id="style1">.cls-1{fill:#1c1c1b;}.cls-1,.cls-2,.cls-3,.cls-4,.cls-5{stroke-width:0px;}.cls-2{fill:#9f358b;}.cls-3{fill:#009eb0;}.cls-4{fill:#f00023;}.cls-5{fill:#004f9f;}</style>
  </defs>
  <path
     class="cls-5"
     d="m 44.731415,122.66141 c 7.34,7.8 19.6,8.17 27.4,0.83 l 25.53,-24.029995 -16.28,-17.3 -39.64,37.309995 3,3.18 z"
     id="path1" />
  <path
     class="cls-5"
     d="m 5.2714146,80.741415 16.3400004,17.36 17.3,-16.28 -13.34,-14.18 43.6,-41.04 49.749995,52.85 3.3,-3.11 c 7.79,-7.34 8.16,-19.6 0.83,-27.4 L 83.591415,7.0214146 c -7.34,-7.8 -19.6,-8.17 -27.4,-0.83 L 6.1014146,53.341415 c -7.8,7.34 -8.17,19.6 -0.83,27.4 z"
     id="path2" />
  <path
     class="cls-2"
     d="m 122.66141,154.31141 c 7.79,-7.34 8.17,-19.6 0.83,-27.4 l -24.029995,-25.53 -17.3,16.28 37.309995,39.64 3.18,-3 z"
     id="path3" />
  <path
     class="cls-2"
     d="m 80.741415,193.77141 17.36,-16.34 -16.28,-17.3 -14.18,13.34 -41.04,-43.6 52.85,-49.749995 -3.11,-3.3 c -7.34,-7.8 -19.6,-8.17 -27.4,-0.83 L 7.0214146,115.45141 c -7.8,7.34 -8.17,19.6 -0.83,27.4 l 47.1500004,50.09 c 7.34,7.79 19.6,8.17 27.4,0.83 z"
     id="path4" />
  <path
     class="cls-3"
     d="m 154.31141,76.381415 c -7.34,-7.8 -19.6,-8.17 -27.4,-0.83 l -25.53,24.03 16.28,17.299995 39.64,-37.309995 -3,-3.18 z"
     id="path5" />
  <path
     class="cls-3"
     d="m 193.77141,118.30141 -16.34,-17.36 -17.3,16.28 13.34,14.17 -43.61,41.04 -49.749995,-52.85 -3.3,3.11 c -7.79,7.34 -8.17,19.6 -0.83,27.4 l 39.459995,41.92 c 7.34,7.8 19.6,8.17 27.4,0.83 l 50.09,-47.15 c 7.8,-7.34 8.17,-19.6 0.83,-27.4"
     id="path6" />
  <path
     class="cls-4"
     d="m 76.381415,44.731415 c -7.8,7.34 -8.17,19.6 -0.83,27.4 l 24.03,25.52 17.299995,-16.28 -37.309995,-39.64 -3.18,3 z"
     id="path7" />
  <path
     class="cls-4"
     d="m 118.30141,5.2714146 -17.36,16.3400004 16.28,17.3 14.17,-13.34 41.04,43.6 -52.85,49.749995 3.11,3.3 c 7.34,7.79 19.6,8.17 27.4,0.83 l 41.92,-39.459995 c 7.79,-7.34 8.17,-19.6 0.83,-27.4 l -47.14,-50.0900004 c -7.33,-7.8 -19.6,-8.17 -27.4,-0.83"
     id="path8" />
</svg>
